<!--
Monochrome SVG used by Safari on macOS when the page is pinned to the tab bar.
Safari tints it with the `color` attribute of the <link rel="mask-icon"> tag.
Single path, no colors inside — Safari applies its own fill.
-->
<svg xmlns="http://www.w3.org/2000/svg" viewBox="0 0 16 16">
    <path d="M3 13.5a.5.5 0 0 1 .5-.5h9a.5.5 0 0 1 0 1h-9a.5.5 0 0 1-.5-.5Z
             M8 2.5a.5.5 0 0 0-.5.5v6.5l-2.3-2.3a.5.5 0 1 0-.7.7l3.2 3.2a.5.5 0 0 0 .7 0l3.2-3.2a.5.5 0 0 0-.7-.7L8.5 9.5V3a.5.5 0 0 0-.5-.5Z"/>
</svg>
